# xmcd
#
# Track frame offsets:
#	150
#	13767
#	27678
#	43336
#	60213
#	72941
#	88564
#	101752
#	114304
#	126328
#
# Disc length: 1822 seconds
#
# Revision: 3
# Processed by: cddbd v1.5PL3 Copyright (c) Steve Scherf et al.
# Submitted via: EasyCDDAExtractor 6.2.0.3
#
DISCID=87071c0a
DTITLE=Barry White - Heart And Soul
DYEAR=1900
DGENRE=Blues
TTITLE0=I've Got The World To Hold Me Up
TTITLE1=Under The Influence Of Love
TTITLE2=Your Heart And Soul
TTITLE3=Long Black Veil
TTITLE4=All Th Run Of A Day
TTITLE5=Come On In Love
TTITLE6=Fragile, Handle With Care
TTITLE7=Out Of The Shadows Of Love
TTITLE8=Where Can I Turn To
TTITLE9=I Owe It All To You
EXTD=
EXTT0=
EXTT1=
EXTT2=
EXTT3=
EXTT4=
EXTT5=
EXTT6=
EXTT7=
EXTT8=
EXTT9=
PLAYORDER=
